<svg xmlns="http://www.w3.org/2000/svg" width="1080" height="580" viewBox="0 0 1080 580">
<defs><marker id="arr" markerWidth="10" markerHeight="10" refX="8" refY="3" orient="auto"><path d="M0,0 L0,6 L9,3 z" fill="#475569"/></marker></defs>
<rect x="0.5" y="0.5" width="1079" height="579" rx="14" fill="white" stroke="#d0d7de"/>
<g font-family="Arial,Helvetica,sans-serif" fill="#17212e">
<text x="40" y="44" font-size="24" font-weight="700">ESP32 → AUO UPS052 LCD architecture</text>
<text x="40" y="71" fill="#475569" font-size="15">I2S0 + DMA output is continuous; the CPU prepares scanline buffers ahead of DMA</text>
<rect x="40" y="108" width="270" height="240" rx="12" fill="#f1f5f9" stroke="#94a3b8"/>
<text x="175" y="136" text-anchor="middle" font-size="19" font-weight="700">Core 0</text>
<rect x="62" y="154" width="225" height="74" rx="9" fill="#dbeafe" stroke="#60a5fa"/>
<text x="175" y="176" text-anchor="middle" font-size="17" font-weight="700">netTask</text>
<text x="175" y="195" text-anchor="middle" font-size="13">Wi-Fi → NTP → Open-Meteo</text>
<text x="175" y="212" text-anchor="middle" font-size="13">Wi-Fi off between updates</text>
<rect x="62" y="246" width="225" height="77" rx="9" fill="#dcfce7" stroke="#4ade80"/>
<text x="175" y="270" text-anchor="middle" font-size="17" font-weight="700">controlTask</text>
<text x="175" y="292" text-anchor="middle" font-size="13">date, clock, weather, BOOT</text>
<text x="175" y="310" text-anchor="middle" font-size="13">event-driven redraw</text>
<rect x="352" y="108" width="300" height="240" rx="12" fill="#f1f5f9" stroke="#94a3b8"/>
<text x="502" y="136" text-anchor="middle" font-size="19" font-weight="700">RAM</text>
<rect x="374" y="155" width="255" height="62" rx="9" fill="#fef9c3" stroke="#eab308"/>
<text x="502" y="180" text-anchor="middle" font-size="16" font-weight="700">RGB565 framebuffer</text>
<text x="502" y="200" text-anchor="middle" font-size="13">160 × 234 × 2 ≈ 75 KB</text>
<rect x="374" y="230" width="255" height="92" rx="9" fill="#fef9c3" stroke="#eab308"/>
<text x="502" y="252" text-anchor="middle" font-size="15" font-weight="700">Full-res clock layer ≈16 KB</text>
<text x="502" y="273" text-anchor="middle" font-size="13">sky + mountains lookup tables</text>
<text x="502" y="293" text-anchor="middle" font-size="13">background built during scanout</text>
<rect x="697" y="108" width="341" height="240" rx="12" fill="#f1f5f9" stroke="#94a3b8"/>
<text x="868" y="136" text-anchor="middle" font-size="19" font-weight="700">Core 1 / hardware output</text>
<rect x="722" y="154" width="291" height="74" rx="9" fill="#fee2e2" stroke="#f87171"/>
<text x="868" y="180" text-anchor="middle" font-size="16" font-weight="700">I2S EOF ISR (IRAM)</text>
<text x="868" y="201" text-anchor="middle" font-size="13">fillLine() 3 lines ahead</text>
<rect x="722" y="244" width="291" height="79" rx="9" fill="#e0f2fe" stroke="#38bdf8"/>
<text x="868" y="269" text-anchor="middle" font-size="16" font-weight="700">6 active line DMA buffers</text>
<text x="868" y="289" text-anchor="middle" font-size="13">257 descriptors in a loop</text>
<text x="868" y="306" text-anchor="middle" font-size="13">blank + VSYNC buffers</text>
<line x1="287" y1="281" x2="374" y2="185" stroke="#475569" stroke-width="2.5" marker-end="url(#arr)"/>
<line x1="629" y1="190" x2="722" y2="190" stroke="#475569" stroke-width="2.5" marker-end="url(#arr)"/>
<line x1="868" y1="228" x2="868" y2="244" stroke="#475569" stroke-width="2.5" marker-end="url(#arr)"/>
<rect x="333" y="403" width="414" height="58" rx="10" fill="#dbeafe" stroke="#60a5fa"/>
<text x="540" y="426" text-anchor="middle" font-size="18" font-weight="700">I2S0 LCD mode (16 MHz)</text>
<text x="540" y="447" text-anchor="middle" font-size="14">DCLK=WS inverted; data + sync in bits 0–9</text>
<line x1="868" y1="348" x2="868" y2="375" stroke="#475569" stroke-width="2.5"/>
<line x1="868" y1="375" x2="540" y2="375" stroke="#475569" stroke-width="2.5"/>
<line x1="540" y1="375" x2="540" y2="403" stroke="#475569" stroke-width="2.5" marker-end="url(#arr)"/>
<rect x="333" y="495" width="414" height="58" rx="10" fill="#2563eb"/>
<text x="540" y="519" text-anchor="middle" font-size="17" font-weight="700" fill="white">AUO 59.02A42.005</text>
<text x="540" y="539" text-anchor="middle" font-size="14" fill="white">UPS052 320RGB · 0 R G B · 1544 samples</text>
<line x1="540" y1="461" x2="540" y2="495" stroke="#475569" stroke-width="2.5" marker-end="url(#arr)"/>
</g></svg>
